<svg width="35" height="36" viewBox="0 0 35 36" fill="none" xmlns="http://www.w3.org/2000/svg">
<path d="M1 18C1 20.1668 1.42678 22.3124 2.25599 24.3143C3.08519 26.3161 4.30057 28.1351 5.83274 29.6673C7.3649 31.1994 9.18385 32.4148 11.1857 33.244C13.1876 34.0732 15.3332 34.5 17.5 34.5C19.6668 34.5 21.8124 34.0732 23.8143 33.244C25.8161 32.4148 27.6351 31.1994 29.1673 29.6673C30.6994 28.1351 31.9148 26.3161 32.744 24.3143C33.5732 22.3124 34 20.1668 34 18C34 15.8332 33.5732 13.6876 32.744 11.6857C31.9148 9.68385 30.6994 7.86491 29.1673 6.33274C27.6351 4.80057 25.8161 3.58519 23.8143 2.75599C21.8124 1.92679 19.6668 1.5 17.5 1.5C15.3332 1.5 13.1876 1.92679 11.1857 2.75599C9.18385 3.58519 7.3649 4.80057 5.83274 6.33274C4.30057 7.86491 3.08519 9.68385 2.25599 11.6857C1.42678 13.6876 1 15.8332 1 18Z" stroke="#FF5E5E" stroke-width="2" stroke-linecap="round" stroke-linejoin="round"/>
<path d="M13.833 15.25C13.833 15.9793 14.1227 16.6788 14.6385 17.1945C15.1542 17.7103 15.8537 18 16.583 18C17.3124 18 18.0118 17.7103 18.5276 17.1945C19.0433 16.6788 19.333 15.9793 19.333 15.25C19.333 14.5207 19.0433 13.8212 18.5276 13.3055C18.0118 12.7897 17.3124 12.5 16.583 12.5C15.8537 12.5 15.1542 12.7897 14.6385 13.3055C14.1227 13.8212 13.833 14.5207 13.833 15.25Z" stroke="#FF5E5E" stroke-width="2" stroke-linecap="round" stroke-linejoin="round"/>
<path d="M8.33301 23.5V12.5M23.9163 18H29.4163M26.6663 15.25V20.75M13.833 20.75C13.833 21.4793 14.1227 22.1788 14.6385 22.6945C15.1542 23.2103 15.8537 23.5 16.583 23.5C17.3124 23.5 18.0118 23.2103 18.5276 22.6945C19.0433 22.1788 19.333 21.4793 19.333 20.75C19.333 20.0207 19.0433 19.3212 18.5276 18.8055C18.0118 18.2897 17.3124 18 16.583 18C15.8537 18 15.1542 18.2897 14.6385 18.8055C14.1227 19.3212 13.833 20.0207 13.833 20.75Z" stroke="#FF5E5E" stroke-width="2" stroke-linecap="round" stroke-linejoin="round"/>
</svg>
