<svg width="24" height="25" viewBox="0 0 24 25" fill="none" xmlns="http://www.w3.org/2000/svg">
<path d="M19.2977 10.066H4.70172C4.40634 10.0663 4.11485 10.1334 3.84904 10.2623C3.58323 10.3911 3.34998 10.5783 3.16672 10.81C2.98422 11.041 2.8567 11.3105 2.79381 11.5981C2.73092 11.8858 2.73431 12.1839 2.80372 12.47L4.36872 18.878C4.59531 19.7036 5.08728 20.4317 5.76872 20.95C6.45072 21.469 7.28572 21.75 8.14472 21.75H15.8527C16.7117 21.75 17.5467 21.469 18.2287 20.95C18.9102 20.4317 19.4021 19.7036 19.6287 18.878L21.1937 12.471C21.2991 12.0391 21.2528 11.584 21.0628 11.1821C20.8727 10.7802 20.5504 10.4557 20.1497 10.263C19.8831 10.135 19.5915 10.0677 19.2957 10.066M8.08672 13.96V17.855M11.9997 13.96V17.855M15.9127 13.96V17.855M18.8477 10.066C18.8474 9.17005 18.67 8.28299 18.3257 7.45582C17.9815 6.62864 17.4771 5.87765 16.8417 5.246C15.5552 3.9665 13.8142 3.2488 11.9997 3.25C10.1853 3.2488 8.44424 3.9665 7.15772 5.246C6.52248 5.87773 6.01834 6.62876 5.67426 7.45593C5.33017 8.28311 5.15293 9.17012 5.15272 10.066" stroke="#1A1D20" stroke-width="1.5" stroke-linecap="round" stroke-linejoin="round"/>
</svg>
