<svg width="24" height="25" viewBox="0 0 24 25" fill="none" xmlns="http://www.w3.org/2000/svg">
<path d="M10.412 4.658C9.10231 4.92374 7.88006 5.51334 6.85685 6.37296C5.83364 7.23258 5.04207 8.33483 4.55443 9.57906C4.06679 10.8233 3.89861 12.1699 4.06525 13.4958C4.23189 14.8217 4.72804 16.0848 5.5084 17.1697C6.28875 18.2546 7.32845 19.1267 8.53255 19.7064C9.73664 20.2861 11.0668 20.5549 12.4015 20.4883C13.7362 20.4217 15.033 20.0218 16.1734 19.3251C17.3138 18.6284 18.2615 17.6572 18.93 16.5C16.5552 16.4815 14.284 15.5252 12.6112 13.8393C10.9385 12.1535 9.99993 9.87487 10 7.5C10 6.52 10.131 5.563 10.412 4.658ZM2 12.5C2 6.977 6.477 2.5 12 2.5H13.734L12.866 4C12.287 5 12 6.189 12 7.5C11.9998 8.53362 12.2286 9.55444 12.6698 10.4892C13.1111 11.4239 13.7538 12.2493 14.5519 12.9061C15.35 13.5629 16.2837 14.0348 17.2858 14.2879C18.288 14.541 19.3337 14.569 20.348 14.37L22.03 14.043L21.487 15.669C20.162 19.637 16.417 22.5 12 22.5C6.477 22.5 2 18.023 2 12.5Z" fill="#1A1D20"/>
</svg>
