<svg width="24" height="25" viewBox="0 0 24 25" fill="none" xmlns="http://www.w3.org/2000/svg">
<path d="M5.99954 19.73C5.66088 19.73 5.37088 19.61 5.12954 19.37C4.88821 19.13 4.76821 18.84 4.76954 18.5C4.77088 18.16 4.89088 17.87 5.12954 17.63C5.36821 17.39 5.65821 17.27 5.99954 17.27C6.34088 17.27 6.63088 17.39 6.86954 17.63C7.10821 17.87 7.22821 18.16 7.22954 18.5C7.23088 18.84 7.11088 19.13 6.86954 19.37C6.62821 19.61 6.33821 19.73 5.99954 19.73ZM5.99954 13.73C5.66088 13.73 5.37088 13.61 5.12954 13.37C4.88821 13.13 4.76821 12.84 4.76954 12.5C4.77088 12.16 4.89088 11.87 5.12954 11.63C5.36821 11.39 5.65821 11.27 5.99954 11.27C6.34088 11.27 6.63088 11.39 6.86954 11.63C7.10821 11.87 7.22821 12.16 7.22954 12.5C7.23088 12.84 7.11088 13.13 6.86954 13.37C6.62821 13.61 6.33821 13.73 5.99954 13.73ZM5.99954 7.73002C5.66088 7.73002 5.37088 7.61002 5.12954 7.37002C4.88821 7.13002 4.76821 6.84002 4.76954 6.50002C4.77088 6.16002 4.89088 5.87002 5.12954 5.63002C5.36821 5.39002 5.65821 5.27002 5.99954 5.27002C6.34088 5.27002 6.63088 5.39002 6.86954 5.63002C7.10821 5.87002 7.22821 6.16002 7.22954 6.50002C7.23088 6.84002 7.11088 7.13002 6.86954 7.37002C6.62821 7.61002 6.33821 7.73002 5.99954 7.73002ZM11.9995 7.73002C11.6609 7.73002 11.3709 7.61002 11.1295 7.37002C10.8882 7.13002 10.7682 6.84002 10.7695 6.50002C10.7709 6.16002 10.8909 5.87002 11.1295 5.63002C11.3682 5.39002 11.6582 5.27002 11.9995 5.27002C12.3409 5.27002 12.6309 5.39002 12.8695 5.63002C13.1082 5.87002 13.2282 6.16002 13.2295 6.50002C13.2309 6.84002 13.1109 7.13002 12.8695 7.37002C12.6282 7.61002 12.3382 7.73002 11.9995 7.73002ZM17.9995 7.73002C17.6609 7.73002 17.3709 7.61002 17.1295 7.37002C16.8882 7.13002 16.7682 6.84002 16.7695 6.50002C16.7709 6.16002 16.8909 5.87002 17.1295 5.63002C17.3682 5.39002 17.6582 5.27002 17.9995 5.27002C18.3409 5.27002 18.6309 5.39002 18.8695 5.63002C19.1082 5.87002 19.2282 6.16002 19.2295 6.50002C19.2309 6.84002 19.1109 7.13002 18.8695 7.37002C18.6282 7.61002 18.3382 7.73002 17.9995 7.73002ZM11.9995 13.73C11.6609 13.73 11.3709 13.61 11.1295 13.37C10.8882 13.13 10.7682 12.84 10.7695 12.5C10.7709 12.16 10.8909 11.87 11.1295 11.63C11.3682 11.39 11.6582 11.27 11.9995 11.27C12.3409 11.27 12.6309 11.39 12.8695 11.63C13.1082 11.87 13.2282 12.16 13.2295 12.5C13.2309 12.84 13.1109 13.13 12.8695 13.37C12.6282 13.61 12.3382 13.73 11.9995 13.73ZM13.2295 19.73V17.521L18.5635 12.214C18.6622 12.1274 18.7639 12.0637 18.8685 12.023C18.9732 11.9824 19.0782 11.962 19.1835 11.962C19.2982 11.962 19.4109 11.9834 19.5215 12.026C19.6322 12.0694 19.7325 12.1337 19.8225 12.219L20.7475 13.164C20.8295 13.2627 20.8922 13.365 20.9355 13.471C20.9782 13.5777 20.9995 13.6844 20.9995 13.791C20.9995 13.897 20.9822 14.0044 20.9475 14.113C20.9129 14.221 20.8462 14.3244 20.7475 14.423L15.4395 19.731L13.2295 19.73ZM19.1895 14.746L20.1145 13.79L19.1905 12.846L18.2405 13.796L19.1895 14.746Z" fill="#1A1D20"/>
</svg>
